<svg width="24" height="24" viewBox="0 0 24 24" fill="none" xmlns="http://www.w3.org/2000/svg">
<path d="M22.4749 1.55237C22.78 1.23277 22.7682 0.72637 22.4486 0.421305C22.129 0.11624 21.6226 0.128026 21.3175 0.447631L22.4749 1.55237ZM19.11 2.76035C18.805 3.07996 18.8168 3.58635 19.1364 3.89142C19.456 4.19648 19.9624 4.1847 20.2674 3.86509L19.11 2.76035ZM11.2891 12.1126L11.8641 11.5564C11.7127 11.3999 11.5041 11.3119 11.2864 11.3126C11.0687 11.3134 10.8607 11.4028 10.7104 11.5604L11.2891 12.1126ZM2.70411 21.1068L2.11589 21.6491L2.12173 21.6553L2.70411 21.1068ZM11.288 12.1138L10.719 12.6761C10.871 12.8299 11.0788 12.9157 11.295 12.9138C11.5113 12.9119 11.7175 12.8225 11.8668 12.6661L11.288 12.1138ZM10.7104 11.5603C10.4054 11.8799 10.4172 12.3863 10.7368 12.6913C11.0564 12.9964 11.5628 12.9846 11.8678 12.665L10.7104 11.5603ZM16.4043 7.91236C16.7093 7.59276 16.6976 7.08636 16.3779 6.78129C16.0583 6.47623 15.5519 6.48802 15.2469 6.80762L16.4043 7.91236ZM16.4043 6.80762C16.0992 6.48802 15.5928 6.47623 15.2732 6.7813C14.9536 7.08636 14.9418 7.59276 15.2469 7.91236L16.4043 6.80762ZM19.1368 10.8291L18.5582 11.3814C18.7091 11.5396 18.9182 11.6291 19.1368 11.6291C19.3555 11.6291 19.5646 11.5396 19.7155 11.3814L19.1368 10.8291ZM23 6.78181L23.5787 7.33418C23.8738 7.02504 23.8738 6.53858 23.5787 6.22944L23 6.78181ZM20.2674 2.76035C19.9624 2.44075 19.456 2.42896 19.1364 2.73403C18.8168 3.03909 18.805 3.54549 19.11 3.86509L20.2674 2.76035ZM15.2469 6.80762C14.9418 7.12722 14.9536 7.63362 15.2732 7.93869C15.5928 8.24375 16.0992 8.23196 16.4043 7.91236L15.2469 6.80762ZM20.2674 3.86509C20.5725 3.54549 20.5607 3.03909 20.2411 2.73403C19.9215 2.42896 19.4151 2.44075 19.11 2.76035L20.2674 3.86509ZM21.3175 0.447631L19.11 2.76035L20.2674 3.86509L22.4749 1.55237L21.3175 0.447631ZM10.7142 12.6689C12.0674 14.0677 12.6099 16.1318 12.1172 18.0757L13.6682 18.4688C14.2937 16.0008 13.6123 13.3636 11.8641 11.5564L10.7142 12.6689ZM12.1172 18.0757C11.625 20.0175 10.1844 21.511 8.36906 22.0161L8.79791 23.5575C11.1937 22.891 13.0421 20.9387 13.6682 18.4688L12.1172 18.0757ZM8.36906 22.0161C6.55732 22.5201 4.61829 21.9724 3.28649 20.5583L2.12173 21.6553C3.85012 23.4905 6.39855 24.2251 8.79791 23.5575L8.36906 22.0161ZM3.2923 20.5646C1.27734 18.3789 1.30685 14.8912 3.35675 12.7436L2.19936 11.6389C-0.434054 14.3978 -0.470353 18.8437 2.11592 21.6491L3.2923 20.5646ZM3.35675 12.7436C5.38748 10.6161 8.65446 10.5871 10.719 12.6761L11.857 11.5515C9.1576 8.81998 4.85196 8.85988 2.19936 11.6389L3.35675 12.7436ZM11.8668 12.6661L11.8679 12.6649L10.7104 11.5604L10.7093 11.5615L11.8668 12.6661ZM11.8678 12.665L16.4043 7.91236L15.2469 6.80762L10.7104 11.5603L11.8678 12.665ZM15.2469 7.91236L18.5582 11.3814L19.7155 10.2767L16.4043 6.80762L15.2469 7.91236ZM19.7155 11.3814L23.5787 7.33418L22.4213 6.22944L18.5582 10.2767L19.7155 11.3814ZM23.5787 6.22944L20.2674 2.76035L19.11 3.86509L22.4213 7.33418L23.5787 6.22944ZM16.4043 7.91236L20.2674 3.86509L19.11 2.76035L15.2469 6.80762L16.4043 7.91236Z" fill="#02A46D"/>
</svg>
