<svg width="20" height="17" viewBox="0 0 20 17" fill="none" xmlns="http://www.w3.org/2000/svg">
<path fill-rule="evenodd" clip-rule="evenodd" d="M4.64702 0.70082C3.89839 0.683288 3.14931 0.704838 2.40292 0.765104C1.82076 0.753051 1.25882 0.979141 0.846914 1.39078C0.434958 1.80241 0.20864 2.36417 0.220191 2.94638C0.159651 3.69258 0.138147 4.44171 0.155816 5.19047V10.4267C0.155816 12.109 0.0510803 11.6086 0.630823 12.4666C0.938911 12.8845 1.39273 13.1719 1.90249 13.2716C2.32138 13.3542 2.74722 13.3969 3.17419 13.3987C3.18314 13.6679 3.19209 13.9342 3.2183 14.1639C3.20597 14.7461 3.43174 15.3083 3.84347 15.7203C4.2552 16.1323 4.81722 16.3587 5.39957 16.3467C5.79751 16.3916 6.27699 16.4029 6.8066 16.4073C6.83468 16.4098 6.86294 16.4106 6.89111 16.4095H15.1195C15.8681 16.427 16.6171 16.4055 17.3636 16.3452C17.9458 16.3569 18.5077 16.1308 18.9194 15.7188C19.3311 15.3068 19.5569 14.7447 19.5448 14.1625C19.6052 13.4159 19.6267 12.6668 19.6091 11.9184L19.6092 10.4223C19.6094 10.3924 19.6079 10.3624 19.6047 10.3325C19.6002 9.80431 19.5897 9.32546 19.5448 8.92917C19.5569 8.34696 19.3311 7.78484 18.9194 7.37284C18.5077 6.96084 17.9458 6.73475 17.3636 6.74643C17.1324 6.72014 16.8646 6.7121 16.5938 6.70224C16.6086 6.64051 16.6154 6.57696 16.614 6.51304C16.6284 5.91513 16.5833 5.31758 16.4794 4.72916C16.3877 4.21416 16.1067 3.75212 15.6917 3.43398C14.8352 2.83607 15.3252 2.94199 13.6242 2.94199H11.6389C10.9008 2.984 10.1615 2.88465 9.46064 2.64943C9.16434 2.52269 8.90642 2.3207 8.71261 2.06357C8.36444 1.6501 7.92605 1.32284 7.43123 1.10588C6.55654 0.794324 5.62977 0.65626 4.7024 0.698994V0.699359H4.65003L4.64702 0.70082ZM4.64702 2.19688C5.39418 2.15451 6.14258 2.25386 6.85294 2.48908C7.15181 2.61399 7.41205 2.81634 7.607 3.0753C7.95248 3.48658 8.3874 3.81384 8.87862 4.03189C9.76261 4.35039 10.7012 4.48955 11.6395 4.44097H13.6234C15.3229 4.44097 14.6766 4.55383 14.8315 4.66524C14.9062 4.72002 14.9526 4.75874 15.0155 5.05131C15.0923 5.54111 15.1261 6.03638 15.1164 6.53239C15.1162 6.58462 15.1215 6.63649 15.1322 6.68799H14.6295C13.8914 6.72963 13.1522 6.63065 12.4512 6.39579C12.1548 6.26868 11.8969 6.06633 11.7032 5.80847C11.3548 5.3961 10.9164 5.06884 10.4218 4.85224C9.54671 4.54069 8.61938 4.40226 7.69147 4.44463H7.63914C6.89052 4.42673 6.14144 4.44828 5.3951 4.50891C4.8128 4.49686 4.25072 4.72258 3.83877 5.13422C3.42676 5.54585 3.20049 6.10797 3.21227 6.69018C3.15169 7.43639 3.13023 8.18551 3.14794 8.93428V11.9034C2.84118 11.8979 2.53533 11.8691 2.23308 11.8165C1.95558 11.7536 1.92413 11.7131 1.86952 11.6324C1.76031 11.4702 1.65183 12.1112 1.65183 10.4303V5.19412C1.65183 4.26054 1.65631 3.57168 1.70717 3.11913C1.75803 2.66659 1.84555 2.51172 1.90463 2.45328C1.96371 2.39484 2.11707 2.30828 2.56961 2.25714C3.02216 2.20601 3.71499 2.19688 4.64702 2.19688ZM7.63914 5.93704C8.38631 5.89467 9.13471 5.99401 9.84507 6.22924C10.144 6.35415 10.4042 6.5565 10.5991 6.8151C10.9446 7.22673 11.3796 7.55363 11.8708 7.77132C12.7548 8.08945 13.6934 8.22861 14.6317 8.1804H15.1195C16.0523 8.1804 16.7412 8.18478 17.1938 8.23592C17.6463 8.28705 17.8012 8.37435 17.8602 8.43352C17.9193 8.49269 18.0053 8.64536 18.0562 9.09791C18.1072 9.55045 18.1116 10.2408 18.1116 11.1729V11.9209C18.1116 12.8523 18.1071 13.5426 18.0562 13.9952C18.0054 14.4477 17.9194 14.6011 17.8602 14.6603C17.8011 14.7195 17.6471 14.81 17.1938 14.8572C16.7404 14.9043 16.0523 14.9134 15.1195 14.9134H7.63914C6.70634 14.9134 6.01739 14.909 5.56485 14.8572C5.1123 14.8053 4.95744 14.7195 4.89836 14.6603C4.83928 14.6011 4.75326 14.4477 4.70235 13.9952C4.65145 13.5426 4.64702 12.8527 4.64702 11.9213V8.92916C4.64702 7.99631 4.65149 7.30745 4.70235 6.85491C4.75321 6.40236 4.84074 6.2475 4.89982 6.18833C4.9589 6.12916 5.11152 6.04332 5.5648 5.99219C6.01807 5.94105 6.70712 5.93704 7.63914 5.93704Z" fill="white"/>
</svg>
