<svg width="19" height="19" viewBox="0 0 19 19" fill="none" xmlns="http://www.w3.org/2000/svg">
<g clip-path="url(#clip0_4099_1386)">
<path d="M9.88277 5.39453C9.2876 5.39453 8.7168 5.63096 8.29595 6.05181C7.8751 6.47266 7.63867 7.04345 7.63867 7.63863V16.615C7.63867 17.2102 7.8751 17.781 8.29595 18.2018C8.7168 18.6227 9.2876 18.8591 9.88277 18.8591C10.4779 18.8591 11.0487 18.6227 11.4696 18.2018C11.8904 17.781 12.1269 17.2102 12.1269 16.615V7.63863C12.1269 7.04345 11.8904 6.47266 11.4696 6.05181C11.0487 5.63096 10.4779 5.39453 9.88277 5.39453ZM10.6308 16.615C10.6308 16.8134 10.552 17.0037 10.4117 17.1439C10.2714 17.2842 10.0812 17.363 9.88277 17.363C9.68438 17.363 9.49411 17.2842 9.35383 17.1439C9.21355 17.0037 9.13473 16.8134 9.13473 16.615V7.63863C9.13473 7.44024 9.21355 7.24997 9.35383 7.10969C9.49411 6.9694 9.68438 6.89059 9.88277 6.89059C10.0812 6.89059 10.2714 6.9694 10.4117 7.10969C10.552 7.24997 10.6308 7.44024 10.6308 7.63863V16.615Z" fill="white"/>
<path d="M16.6152 0.90625C16.02 0.90625 15.4492 1.14268 15.0284 1.56353C14.6075 1.98438 14.3711 2.55517 14.3711 3.15034V16.6149C14.3711 17.2101 14.6075 17.7809 15.0284 18.2017C15.4492 18.6226 16.02 18.859 16.6152 18.859C17.2104 18.859 17.7812 18.6226 18.202 18.2017C18.6229 17.7809 18.8593 17.2101 18.8593 16.6149V3.15034C18.8593 2.55517 18.6229 1.98438 18.202 1.56353C17.7812 1.14268 17.2104 0.90625 16.6152 0.90625V0.90625ZM17.3632 16.6149C17.3632 16.8133 17.2844 17.0036 17.1441 17.1438C17.0038 17.2841 16.8136 17.3629 16.6152 17.3629C16.4168 17.3629 16.2265 17.2841 16.0862 17.1438C15.946 17.0036 15.8672 16.8133 15.8672 16.6149V3.15034C15.8672 2.95195 15.946 2.76169 16.0862 2.62141C16.2265 2.48112 16.4168 2.40231 16.6152 2.40231C16.8136 2.40231 17.0038 2.48112 17.1441 2.62141C17.2844 2.76169 17.3632 2.95195 17.3632 3.15034V16.6149Z" fill="white"/>
<path d="M3.15034 9.88281C2.55517 9.88281 1.98438 10.1192 1.56353 10.5401C1.14268 10.9609 0.90625 11.5317 0.90625 12.1269L0.90625 16.6151C0.90625 17.2103 1.14268 17.7811 1.56353 18.2019C1.98438 18.6228 2.55517 18.8592 3.15034 18.8592C3.74552 18.8592 4.31631 18.6228 4.73716 18.2019C5.15801 17.7811 5.39444 17.2103 5.39444 16.6151V12.1269C5.39444 11.5317 5.15801 10.9609 4.73716 10.5401C4.31631 10.1192 3.74552 9.88281 3.15034 9.88281Z" fill="white"/>
</g>
<defs>
<clipPath id="clip0_4099_1386">
<rect width="17.9528" height="17.9528" fill="white" transform="translate(0.90625 0.90625)"/>
</clipPath>
</defs>
</svg>
