<svg width="24" height="24" viewBox="0 0 24 24" fill="none" xmlns="http://www.w3.org/2000/svg">
<path d="M23 22.5217C23 22.7858 22.7861 23 22.5217 23H1.47826C1.21393 23 1 22.7858 1 22.5217V1.47826C1 1.21417 1.21393 1 1.47826 1C1.7426 1 1.95652 1.21417 1.95652 1.47826V14.8696H4.56969C4.83733 14.8427 6.12729 14.7946 7.11327 16.2429C7.26273 16.4622 7.39306 16.6728 7.51262 16.8674C7.84798 17.4108 8.0488 17.7184 8.27392 17.7184C8.556 17.7184 8.98198 17.7184 10.0581 14.7136C10.7554 12.7662 11.498 10.5979 11.8791 9.4789C12.1425 8.70521 12.8697 8.18563 13.6889 8.18563H14.3171C15.205 8.18563 15.97 8.78953 16.1778 9.65403C16.4403 10.75 16.5809 11.051 16.6178 11.1173C16.7575 11.3672 17.0489 11.8877 18.2973 11.6159C19.8988 11.2665 20.2683 11.5463 20.8894 12.8438C21.4018 13.9131 22.9113 16.3147 22.9267 16.3387C23.0673 16.5622 23 16.8576 22.7763 16.9982C22.5535 17.1402 22.2579 17.0718 22.1168 16.8483C22.0538 16.7478 20.563 14.376 20.0268 13.2569C19.726 12.6298 19.2177 12.3943 18.5019 12.5504C17.2123 12.8321 16.2988 12.506 15.7827 11.5836C15.7276 11.4849 15.5613 11.186 15.2475 9.877C15.1438 9.44451 14.7613 9.1421 14.3171 9.1421H13.6889C13.2793 9.1421 12.916 9.40132 12.7843 9.78709C12.4026 10.9087 11.6582 13.0824 10.9585 15.0358C9.95998 17.8246 9.33274 18.6748 8.27392 18.6748C7.50373 18.6748 7.11284 18.0408 6.69857 17.3694C6.58599 17.1864 6.46365 16.9878 6.32304 16.7814C5.59446 15.7107 4.70332 15.8162 4.66687 15.8209C4.64588 15.8237 4.61828 15.826 4.59729 15.826H1.95657V22.0434H22.5217C22.7861 22.0434 23 22.2576 23 22.5217V22.5217Z" fill="#B9BFBD" stroke="#B9BFBD" stroke-width="0.6"/>
</svg>
