<svg width="18" height="16" viewBox="0 0 18 16" fill="none" xmlns="http://www.w3.org/2000/svg">
<path fill-rule="evenodd" clip-rule="evenodd" d="M11.8748 15.8815H2.89839C1.65901 15.8815 0.654297 14.8767 0.654297 13.6374V6.15712C0.654297 4.91783 1.65901 3.91302 2.89839 3.91302H5.14249V3.16499C5.14249 1.9257 6.1472 0.920898 7.38658 0.920898H10.3787C11.6181 0.920898 12.6228 1.9257 12.6228 3.16499V3.91302H14.8669C16.1063 3.91302 17.111 4.91783 17.111 6.15712V13.6374C17.111 14.8767 16.1063 15.8815 14.8669 15.8815H11.8748ZM14.8669 14.3855C15.28 14.3855 15.6149 14.0505 15.6149 13.6374V6.15711C15.6149 5.74402 15.28 5.40908 14.8669 5.40908H12.6228V14.3855H14.8669ZM11.1267 14.3855V5.40908H6.63853V14.3855H11.1267ZM2.15034 6.15711V13.6374C2.15034 14.0505 2.48523 14.3855 2.89837 14.3855H5.14246V5.40908H2.89837C2.48523 5.40908 2.15034 5.74402 2.15034 6.15711ZM11.1267 3.91302V3.16499C11.1267 2.75189 10.7918 2.41696 10.3787 2.41696H7.38656C6.97342 2.41696 6.63853 2.75189 6.63853 3.16499V3.91302H11.1267Z" fill="white"/>
</svg>
