<svg width="20" height="20" viewBox="0 0 20 20" fill="none" xmlns="http://www.w3.org/2000/svg">
<path fill-rule="evenodd" clip-rule="evenodd" d="M12 20.0002C11.4477 20.0002 11 19.5525 11 19.0002V12.0002C11 11.448 11.4477 11.0002 12 11.0002H19C19.5523 11.0002 20 11.448 20 12.0002V19.0002C20 19.5525 19.5523 20.0002 19 20.0002H12ZM13 18.0003H18V13.0003H13V18.0003ZM1 20.0002C0.447693 20.0002 0 19.5525 0 19.0002V12.0002C0 11.448 0.447693 11.0002 1 11.0002H8C8.55231 11.0002 9 11.448 9 12.0002V19.0002C9 19.5525 8.55231 20.0002 8 20.0002H1ZM2 18.0003H7V13.0003H2V18.0003ZM12.0002 9C11.4479 9 11.0002 8.55225 11.0002 8V1C11.0002 0.447754 11.4479 0 12.0002 0H19.0002C19.5525 0 20.0002 0.447754 20.0002 1V8C20.0002 8.55225 19.5525 9 19.0002 9H12.0002ZM13 7.00004H18V2.00004H13V7.00004ZM1 9C0.447693 9 0 8.55225 0 8V1C0 0.447754 0.447693 0 1 0H8C8.55231 0 9 0.447754 9 1V8C9 8.55225 8.55231 9 8 9H1ZM2 7.00004H7V2.00004H2V7.00004Z" fill="#B9BFBD"/>
</svg>
