<svg width="16" height="16" viewBox="0 0 16 16" fill="none" xmlns="http://www.w3.org/2000/svg">
<path fill-rule="evenodd" clip-rule="evenodd" d="M9.37875 15.8815C8.9656 15.8815 8.63071 15.5466 8.63071 15.1335V9.89728C8.63071 9.48418 8.9656 9.14925 9.37875 9.14925H14.615C15.0281 9.14925 15.363 9.48418 15.363 9.89728V15.1335C15.363 15.5466 15.0281 15.8815 14.615 15.8815H9.37875ZM10.1268 14.3855H13.8669V10.6453H10.1268V14.3855ZM1.1504 15.8815C0.737257 15.8815 0.402368 15.5466 0.402368 15.1335V9.89728C0.402368 9.48418 0.737257 9.14925 1.1504 9.14925H6.38662C6.79976 9.14925 7.13465 9.48418 7.13465 9.89728V15.1335C7.13465 15.5466 6.79976 15.8815 6.38662 15.8815H1.1504ZM1.89843 14.3855H5.63859V10.6453H1.89843V14.3855ZM9.37875 7.65318C8.9656 7.65318 8.63071 7.31825 8.63071 6.90515V1.66893C8.63071 1.25583 8.9656 0.920898 9.37875 0.920898H14.615C15.0281 0.920898 15.363 1.25583 15.363 1.66893V6.90515C15.363 7.31825 15.0281 7.65318 14.615 7.65318H9.37875ZM10.1268 6.15712H13.8669V2.41696H10.1268V6.15712ZM1.15038 7.65319C0.737232 7.65319 0.402344 7.31825 0.402344 6.90516V1.66893C0.402344 1.25584 0.737232 0.920903 1.15038 0.920903H6.3866C6.79974 0.920903 7.13463 1.25584 7.13463 1.66893V6.90516C7.13463 7.31825 6.79974 7.65319 6.3866 7.65319H1.15038ZM1.89843 6.15712H5.63859V2.41696H1.89843V6.15712Z" fill="white"/>
</svg>
