<svg width="20" height="19" viewBox="0 0 20 19" fill="none" xmlns="http://www.w3.org/2000/svg">
<path fill-rule="evenodd" clip-rule="evenodd" d="M4.77217 18.6048C2.55136 18.6311 0.703517 16.9046 0.578693 14.6871L0.574219 14.4998V4.72458C0.592481 2.50533 2.35591 0.694052 4.57398 0.616984L4.76619 0.612601H9.1407C11.3616 0.586303 13.2094 2.31284 13.3342 4.53027L13.3386 5.54347C13.3279 6.00807 12.9645 6.3872 12.501 6.41825C12.0375 6.44929 11.627 6.1213 11.5546 5.66254L11.5479 5.55845V4.72422C11.5355 3.46447 10.5423 2.43264 9.28355 2.37201L9.13398 2.36726H4.77071C3.51 2.35594 2.45809 3.3275 2.36956 4.58506L2.36951 4.73079V14.4932C2.3823 15.7526 3.37541 16.7837 4.63379 16.8439L4.7834 16.8494H9.15416C10.4107 16.8622 11.4597 15.8939 11.5478 14.6404L11.5523 13.6739C11.5631 13.2093 11.9265 12.8302 12.39 12.7992C12.8535 12.7681 13.264 13.0961 13.3364 13.5549L13.3446 13.6582V14.5012C13.3261 16.7135 11.5695 18.5197 9.35838 18.5997H9.16014L4.77217 18.6048ZM15.2731 12.7882C14.9616 12.4829 14.9254 11.9934 15.1886 11.6454L15.2634 11.5592L16.3622 10.4879H7.74039C7.27443 10.4948 6.88434 10.1361 6.85215 9.67118C6.81992 9.20622 7.15677 8.79714 7.61922 8.73979L7.72546 8.73139H16.3622L15.2738 7.67217C14.9624 7.36682 14.9247 6.87848 15.1855 6.5293L15.2603 6.4431C15.5776 6.12899 16.0745 6.08772 16.4392 6.34522L16.5275 6.42009L19.1538 8.9783C19.3299 9.14157 19.4297 9.37131 19.429 9.61165C19.4275 9.85417 19.3254 10.085 19.1471 10.2494L16.5402 12.7926C16.1871 13.1348 15.6261 13.1348 15.273 12.7926L15.2731 12.7882Z" fill="#8FABC1"/>
</svg>
