<svg width="18" height="14" viewBox="0 0 18 14" fill="none" xmlns="http://www.w3.org/2000/svg">
<path fill-rule="evenodd" clip-rule="evenodd" d="M2.89839 13.7872C1.65901 13.7872 0.654297 12.7824 0.654297 11.5431V7.80295C0.654297 7.78944 0.654297 7.77665 0.654297 7.76314C0.654297 7.75035 0.654297 7.73757 0.654297 7.72515C0.6632 7.64078 0.686439 7.5586 0.723146 7.4819L3.3098 1.65835C3.66998 0.844212 4.477 0.320444 5.36689 0.32227L12.3984 0.322636C13.2862 0.321905 14.0909 0.844943 14.451 1.65653L17.0467 7.49797C17.0732 7.5586 17.0915 7.62252 17.1013 7.6879V7.7036V7.71018V7.72223V7.74086C17.1013 7.74524 17.1013 7.75072 17.1013 7.7551V7.76022C17.1013 7.76387 17.1013 7.76862 17.1013 7.773C17.1013 7.77738 17.1013 7.77738 17.1013 7.7803C17.1013 7.78323 17.1013 7.79309 17.1013 7.79966V11.5398C17.1013 12.7791 16.0966 13.7839 14.8572 13.7839L2.89839 13.7872ZM2.15034 11.5431C2.15034 11.9562 2.48523 12.2911 2.89837 12.2911H14.8669C15.28 12.2911 15.6149 11.9562 15.6149 11.5431V8.55097H12.2757L11.004 10.4609C10.865 10.6702 10.63 10.7958 10.3786 10.7951H7.38656C7.13636 10.7954 6.90283 10.6702 6.76417 10.462L5.49256 8.5517H2.15034V11.5431ZM5.8905 7.05491C6.14037 7.05418 6.3739 7.17873 6.51284 7.38656L7.7845 9.29827H9.97622L11.2479 7.38692C11.3878 7.17763 11.6233 7.05272 11.8747 7.05454L15.2124 7.05491L13.0835 2.26758C12.9647 1.99474 12.6956 1.81832 12.3983 1.81832L5.36682 1.81869C5.06951 1.81832 4.8005 1.99474 4.68161 2.26722L2.55271 7.05491H5.8905Z" fill="white"/>
</svg>
