<svg width="16" height="20" viewBox="0 0 16 20" fill="none" xmlns="http://www.w3.org/2000/svg">
<path fill-rule="evenodd" clip-rule="evenodd" d="M8.13387 0.802734C5.69003 0.802734 4.43932 2.78056 4.39819 5.21605C4.39545 5.24125 4.39394 5.26609 4.39371 5.29129V6.03895H1.40159C0.988444 6.03895 0.653555 6.37389 0.653555 6.78699V12.7712C0.626527 13.9517 0.660221 15.1326 0.754547 16.3094C0.724414 17.1393 1.04099 17.9443 1.62832 18.5316C2.21564 19.1185 3.02078 19.4349 3.85063 19.4042C4.77636 19.5006 5.70756 19.5335 6.63776 19.5035H10.378C11.3095 19.5335 12.242 19.4999 13.1689 19.4027C14.083 19.2993 14.0927 19.0795 14.6433 18.5298C15.1816 17.9118 15.4897 17.1268 15.5155 16.3076C15.6086 15.1311 15.6416 13.951 15.6142 12.7712V6.78699C15.6142 6.37389 15.2793 6.03895 14.8662 6.03895H11.874V5.29092C11.8742 5.2628 11.8727 5.23431 11.8696 5.20655C11.8239 2.77545 10.5747 0.802734 8.13387 0.802734ZM8.13384 2.29879C9.79372 2.29879 10.3779 3.63085 10.3779 5.29091V6.03894H5.88975V5.29091C5.88975 3.63012 6.47396 2.29879 8.13384 2.29879ZM2.14959 7.53501H4.39368V9.03107C4.38775 9.44453 4.7178 9.78421 5.13094 9.79006C5.54408 9.7959 5.88381 9.46608 5.88975 9.05298C5.88975 9.04531 5.88975 9.03801 5.88975 9.03107V7.53501H10.3779V9.03107C10.372 9.44453 10.7021 9.78421 11.1152 9.79006C11.5283 9.7959 11.8681 9.46608 11.874 9.05298C11.874 9.04531 11.874 9.03801 11.874 9.03107V7.53501H14.1181V12.7712C14.1181 14.2622 14.1136 15.3722 14.0276 16.1374C14.0304 16.6177 13.8747 17.0856 13.5847 17.4687C13.385 17.6685 13.7688 17.8263 13.0006 17.9139C12.1294 18.0034 11.2533 18.0345 10.378 18.0074H6.63778C5.76401 18.0348 4.88942 18.0045 4.01967 17.9169C3.53055 17.9863 3.03724 17.8219 2.68783 17.4727C2.33842 17.1235 2.1737 16.6301 2.24309 16.141C2.1563 15.3729 2.1526 14.2636 2.1526 12.7705V7.53428L2.14959 7.53501Z" fill="white"/>
</svg>
