<svg width="14" height="16" viewBox="0 0 14 16" fill="none" xmlns="http://www.w3.org/2000/svg">
<path fill-rule="evenodd" clip-rule="evenodd" d="M12.1189 14.6608V13.1648C12.1189 11.9255 11.1142 10.9207 9.8748 10.9207H3.89055C2.65116 10.9207 1.64645 11.9255 1.64645 13.1648V14.6608C1.64645 14.9282 1.50387 15.1751 1.27244 15.3088C1.04101 15.4421 0.755838 15.4421 0.524406 15.3088C0.292975 15.1751 0.150391 14.9282 0.150391 14.6608V13.1648C0.150391 11.0993 1.82492 9.42462 3.89055 9.42462H9.8748C11.9404 9.42462 13.615 11.0993 13.615 13.1648V14.6608C13.615 14.9282 13.4724 15.1751 13.2409 15.3088C13.0095 15.4421 12.7243 15.4421 12.4929 15.3088C12.2615 15.1751 12.1189 14.9282 12.1189 14.6608ZM3.14252 4.1884C3.14252 2.12291 4.81705 0.448242 6.88267 0.448242C8.9483 0.448242 10.6228 2.12291 10.6228 4.1884C10.6228 6.25389 8.94834 7.92856 6.88267 7.92856C4.81705 7.92856 3.14252 6.25389 3.14252 4.1884ZM4.63858 4.1884C4.63858 5.42769 5.64329 6.43249 6.88267 6.43249C8.12206 6.43249 9.12677 5.42769 9.12677 4.1884C9.12677 2.94911 8.12206 1.94431 6.88267 1.94431C5.64329 1.94431 4.63858 2.94911 4.63858 4.1884Z" fill="white"/>
</svg>
