<svg width="19" height="16" viewBox="0 0 19 16" fill="none" xmlns="http://www.w3.org/2000/svg">
<path fill-rule="evenodd" clip-rule="evenodd" d="M5.40796 0.928407C4.51566 0.906857 3.6228 0.931694 2.73305 1.00292C2.06816 0.985021 1.42519 1.24143 0.955156 1.71187C0.48508 2.18267 0.229359 2.82588 0.248032 3.49063C0.166125 3.87743 0.140421 4.27446 0.171741 4.66856V12.1489C0.139599 12.5434 0.164756 12.9404 0.246526 13.3279C0.228446 13.993 0.484669 14.6355 0.954973 15.1056C1.42532 15.5757 2.0683 15.8313 2.73296 15.8131C3.62175 15.8839 4.5136 15.9088 5.40495 15.8876H13.6333C14.5256 15.9091 15.4185 15.8839 16.3082 15.8131C16.9731 15.8313 17.6163 15.5749 18.0864 15.1041C18.5564 14.6337 18.8121 13.9901 18.7932 13.3253C18.876 12.9389 18.9028 12.5426 18.8726 12.1485L18.8725 4.66856C18.9047 4.27373 18.8795 3.87634 18.7977 3.48881C18.8156 2.82405 18.5594 2.18121 18.0891 1.71114C17.6188 1.24143 16.9759 0.985386 16.3113 1.00365C15.4215 0.93279 14.5287 0.907953 13.6363 0.928407H5.40796ZM5.40797 2.42447H13.6363C14.7584 2.42447 15.5812 2.42885 16.1422 2.49094C16.4661 2.43214 16.7982 2.53587 17.0311 2.76853C17.2639 3.00119 17.3681 3.33321 17.3099 3.65682C17.3921 3.98737 17.4146 4.32997 17.3765 4.66856V5.41659H14.3843C14.3293 5.41586 14.2744 5.42097 14.2205 5.4323C12.6318 5.5079 11.3825 6.81769 11.3825 8.40835C11.3825 9.99901 12.6318 11.3088 14.2205 11.3844C14.2744 11.3957 14.3293 11.4012 14.3843 11.4008H17.3765V12.1489C17.414 12.4867 17.3912 12.8286 17.3091 13.1584C17.3679 13.482 17.2643 13.8144 17.0316 14.0471C16.7989 14.2801 16.4669 14.3842 16.1429 14.3258C15.5849 14.3893 14.7554 14.393 13.6355 14.393H5.40797C5.12221 14.393 4.90826 14.3893 4.65994 14.3879V2.43067C4.90826 2.43067 5.12221 2.42556 5.40797 2.42556V2.42447ZM3.16388 2.47597V14.3389C3.08909 14.3331 2.97239 14.3323 2.90208 14.3239C2.57843 14.3824 2.24678 14.2786 2.01412 14.0463C1.7815 13.814 1.67726 13.4824 1.73516 13.1588C1.65302 12.8286 1.63024 12.4867 1.66786 12.1489L1.66781 4.66856C1.63028 4.3307 1.65311 3.98883 1.7352 3.65901C1.67644 3.33503 1.78013 3.00302 2.0127 2.76999C2.24532 2.53696 2.57729 2.4325 2.90135 2.49094C2.97166 2.48254 3.08535 2.48254 3.16465 2.47597H3.16388ZM14.3843 6.91192H17.3765V9.90405H14.3843C13.8499 9.90405 13.356 9.61879 13.0887 9.15602C12.8215 8.69325 12.8215 8.12273 13.0887 7.65996C13.356 7.19718 13.8499 6.91192 14.3843 6.91192ZM14.3843 7.65996C13.9712 7.65996 13.6363 7.99489 13.6363 8.40799C13.6363 8.82108 13.9712 9.15602 14.3843 9.15602C14.7975 9.15602 15.1324 8.82108 15.1324 8.40799C15.132 7.99525 14.7972 7.66069 14.3843 7.66069V7.65996Z" fill="white"/>
</svg>
