<svg width="19" height="19" viewBox="0 0 19 19" fill="none" xmlns="http://www.w3.org/2000/svg">
<path fill-rule="evenodd" clip-rule="evenodd" d="M7.20229 16.5347C7.20896 16.3024 7.06149 16.0932 6.84024 16.0216C6.66131 15.9416 6.4518 15.9777 6.3099 16.1129L6.26575 16.1571C5.69874 16.7243 4.87218 16.9464 4.09731 16.7389C3.32248 16.5315 2.71712 15.9266 2.50925 15.1519C2.30142 14.3772 2.52262 13.5503 3.08963 12.9831L3.12926 12.9432C3.26454 12.8008 3.30312 12.5922 3.22774 12.4107C3.15231 12.2292 2.97704 12.1094 2.78063 12.1046H2.65425C1.85253 12.1046 1.11166 11.6769 0.710802 10.9826C0.309941 10.2882 0.309941 9.43283 0.710802 8.73849C1.11166 8.04415 1.85253 7.61644 2.65425 7.61644C2.88691 7.62265 3.09597 7.47472 3.16738 7.25338C3.24687 7.07477 3.21085 6.86585 3.07616 6.72413L3.03123 6.67848C2.155 5.80151 2.15523 4.38069 3.03169 3.50409C3.9082 2.62749 5.32916 2.62749 6.20594 3.50373L6.24552 3.54244C6.38751 3.6816 6.60004 3.72032 6.78185 3.6396C6.82988 3.61841 6.88005 3.60271 6.93142 3.59212C7.06282 3.50263 7.14235 3.35434 7.14463 3.19546V3.07017C7.14463 2.26845 7.57234 1.52773 8.26668 1.12668C8.96102 0.726002 9.81643 0.726002 10.5108 1.12668C11.2051 1.52773 11.6328 2.26845 11.6328 3.07017V3.13373C11.6338 3.3295 11.7515 3.50628 11.9321 3.58262C12.1112 3.66224 12.3207 3.62572 12.4624 3.49058L12.5073 3.44638C13.384 2.57015 14.805 2.57015 15.6815 3.44675C16.5579 4.32335 16.5581 5.74417 15.6819 6.62113L15.643 6.65985C15.5036 6.80193 15.4648 7.01414 15.5451 7.19604C15.5662 7.24388 15.5824 7.29429 15.5937 7.34579C15.6824 7.47837 15.8313 7.55836 15.9909 7.55909H16.1188C16.9205 7.55909 17.6614 7.9868 18.0623 8.68114C18.4631 9.37548 18.4631 10.2309 18.0623 10.9252C17.6614 11.6196 16.9205 12.0473 16.1188 12.0473H16.0545C15.859 12.0506 15.6837 12.1685 15.6065 12.3479C15.5293 12.5276 15.5647 12.7358 15.6969 12.8797L15.7418 12.9239C16.3092 13.4911 16.5309 14.3177 16.3234 15.0927C16.116 15.8674 15.511 16.473 14.7361 16.6808C13.9613 16.8887 13.1345 16.6673 12.5671 16.1001L12.5282 16.0603C12.3834 15.9204 12.1679 15.8831 11.9844 15.966C11.8066 16.042 11.6909 16.2162 11.6897 16.4095V16.5347C11.6897 17.3365 11.262 18.0772 10.5677 18.4782C9.87332 18.8789 9.01791 18.8789 8.32357 18.4782C7.62923 18.0772 7.20152 17.3365 7.20152 16.5347H7.20229ZM7.40056 14.6362C8.16946 14.9203 8.68469 15.6479 8.69765 16.4675V16.5347C8.69765 16.9478 9.03254 17.2828 9.44568 17.2828C9.85883 17.2828 10.1937 16.9478 10.1937 16.5347V16.4047C10.1994 15.6052 10.6825 14.8867 11.4207 14.5795C12.1589 14.2727 13.0091 14.4367 13.58 14.9963L13.6249 15.042C13.9176 15.3345 14.392 15.3342 14.6845 15.0416C14.977 14.749 14.9768 14.2746 14.6841 13.982L14.6333 13.9312C14.0681 13.353 13.9106 12.4896 14.2353 11.7492C14.5481 11.0253 15.2604 10.5552 16.0493 10.5527L16.1188 10.5523C16.532 10.5523 16.8669 10.2174 16.8669 9.80427C16.8669 9.39118 16.532 9.05624 16.1188 9.05624H15.9887C15.1988 9.05259 14.4864 8.58032 14.1755 7.85421C14.1477 7.79138 14.1296 7.72491 14.1216 7.65661C13.8723 6.94254 14.0501 6.14885 14.5801 5.60938L14.625 5.56372C14.9173 5.27116 14.9171 4.79707 14.6246 4.50487C14.3321 4.21267 13.858 4.21267 13.5657 4.50523L13.5149 4.556C12.9416 5.11264 12.0911 5.27299 11.3543 4.96362C10.6176 4.65389 10.1371 3.93398 10.1338 3.13481V3.07016C10.1338 2.65707 9.79888 2.32213 9.38574 2.32213C8.97259 2.32213 8.63771 2.65707 8.63771 3.07016V3.20019C8.63419 3.98986 8.1622 4.70247 7.43635 5.01329C7.37335 5.04032 7.30687 5.05858 7.23884 5.06698C6.52464 5.31609 5.73082 5.13821 5.19153 4.60787L5.14665 4.56221C4.9574 4.37301 4.68159 4.29923 4.42309 4.36826C4.16463 4.43766 3.96274 4.63964 3.89352 4.89824C3.82431 5.15647 3.89832 5.4326 4.08761 5.62143L4.13829 5.6722C4.69693 6.23652 4.86052 7.08207 4.55271 7.81439C4.26795 8.58324 3.54065 9.09898 2.7208 9.11286H2.65428C2.24113 9.11286 1.90624 9.44779 1.90624 9.86089C1.90624 10.274 2.24113 10.6089 2.65428 10.6089H2.78444C3.58384 10.6148 4.30242 11.0976 4.60946 11.8358C4.91654 12.574 4.7525 13.4243 4.19294 13.9952L4.1481 14.0393C3.8554 14.3319 3.85522 14.8064 4.14774 15.0989C4.44021 15.3915 4.91462 15.3919 5.20733 15.0993L5.25819 15.0485C5.63088 14.6844 6.13068 14.4798 6.65171 14.4776C6.90962 14.4773 7.16475 14.531 7.40056 14.6354V14.6362ZM6.39443 9.80245C6.39443 8.15006 7.73403 6.81032 9.38656 6.81032C11.039 6.81032 12.3787 8.15006 12.3787 9.80245C12.3787 11.4548 11.0391 12.7946 9.38656 12.7946C7.73403 12.7946 6.39443 11.4548 6.39443 9.80245ZM7.8905 9.80245C7.8905 10.6286 8.56032 11.2985 9.38656 11.2985C10.2128 11.2985 10.8826 10.6286 10.8826 9.80245C10.8826 8.97625 10.2128 8.30639 9.38656 8.30639C8.56032 8.30639 7.8905 8.97625 7.8905 9.80245Z" fill="white"/>
</svg>
