<svg width="20" height="16" viewBox="0 0 20 16" fill="none" xmlns="http://www.w3.org/2000/svg">
<path fill-rule="evenodd" clip-rule="evenodd" d="M3.15034 16.0075C1.91096 16.0075 0.90625 15.0027 0.90625 13.7634V2.54292C0.90625 1.30363 1.91096 0.298828 3.15034 0.298828H17.3629C18.6023 0.298828 19.607 1.30363 19.607 2.54292V13.7634C19.607 15.0027 18.6023 16.0075 17.3629 16.0075H3.15034ZM17.3629 14.5114C17.7761 14.5114 18.111 14.1765 18.111 13.7634V9.12546H15.6582L13.827 14.5114H17.3629ZM2.40231 2.54293V13.7634C2.40231 14.1765 2.7372 14.5114 3.15034 14.5114H11.9233L8.38656 4.11386L6.85233 8.6236C6.74691 8.92494 6.46178 9.12619 6.14246 9.12473H3.15034C2.88293 9.13349 2.63209 8.99543 2.49586 8.76532C2.35962 8.53521 2.35962 8.24886 2.49586 8.01875C2.63209 7.78864 2.88293 7.65058 3.15034 7.65934H5.60313L7.5989 1.79088H3.15034C2.95128 1.79051 2.76039 1.86977 2.62 2.01112C2.4796 2.15211 2.40126 2.3435 2.40231 2.54256V2.54293ZM12.8747 12.6735L14.409 8.16302C14.5149 7.86206 14.7999 7.66154 15.1188 7.66336H18.111V2.54293C18.111 2.12983 17.7761 1.79489 17.3629 1.79489H9.17349L12.8747 12.6735Z" fill="white"/>
</svg>
