<svg width="42" height="36" viewBox="0 0 42 36" fill="none" xmlns="http://www.w3.org/2000/svg">
<g clip-path="url(#clip0_4099_1307)">
<path fill-rule="evenodd" clip-rule="evenodd" d="M15.0385 11.4843C14.3074 7.30385 12.1383 5.87524 10.6896 7.64387C7.28139 11.819 10.4853 20.7861 12.7538 24.9217C13.7429 26.7272 14.3154 28.3324 14.56 29.7162C17.1968 30.4674 19.5701 29.2128 21.5484 26.9855C20.4302 25.035 19.7314 22.6496 19.3793 20.2484C16.9764 21.7798 14.7831 19.9031 15.0358 11.4816L15.0385 11.4843Z" fill="url(#paint0_radial_4099_1307)"/>
<path fill-rule="evenodd" clip-rule="evenodd" d="M15.0385 11.4843C14.3074 7.30385 12.1383 5.87524 10.6896 7.64387C7.28139 11.819 10.4853 20.7861 12.7538 24.9217C13.7429 26.7272 14.3154 28.3324 14.56 29.7162C14.3611 28.3298 13.9633 26.7272 13.1435 24.9217C11.9098 22.2199 10.3536 17.457 10.2031 13.3214C9.9746 6.83731 13.9499 6.18099 15.0385 11.4816V11.4843Z" fill="url(#paint1_radial_4099_1307)"/>
<path fill-rule="evenodd" clip-rule="evenodd" d="M20.0566 28.4115C20.578 28.0003 21.0752 27.5232 21.5483 26.9881C20.4302 25.0376 19.7313 22.6522 19.3792 20.251C19.3282 22.9448 19.5969 25.6649 20.0566 28.4115Z" fill="url(#paint2_radial_4099_1307)"/>
<path fill-rule="evenodd" clip-rule="evenodd" d="M32.6272 7.74184C35.6672 21.9515 27.8967 20.884 26.2598 18.1428C30.3587 25.7761 41.5804 22.9874 41.9889 8.75136C41.5911 -3.17044 30.4716 -2.32698 32.6272 7.74184Z" fill="url(#paint3_radial_4099_1307)"/>
<path fill-rule="evenodd" clip-rule="evenodd" d="M32.6084 17.5625C31.0307 21.0154 27.3295 19.9374 26.2598 18.1424C30.3587 25.7757 41.5804 22.987 41.9889 8.75098C41.2713 18.3849 35.1081 19.629 32.6084 17.5599V17.5625Z" fill="url(#paint4_radial_4099_1307)"/>
<path fill-rule="evenodd" clip-rule="evenodd" d="M32.6266 7.74184C32.4869 0.980972 39.8381 2.50184 41.9883 8.75136C41.5906 -3.17044 30.471 -2.32698 32.6266 7.74184Z" fill="url(#paint5_radial_4099_1307)"/>
<path fill-rule="evenodd" clip-rule="evenodd" d="M0.0603586 21.566C1.51179 40.9181 20.7728 39.5554 12.755 24.9214C10.4864 20.7858 7.28255 11.8187 10.6907 7.64357C12.1395 5.8723 14.3058 7.30355 15.0396 11.484C15.6713 -9.58941 -1.10885 6.01463 0.0603586 21.566Z" fill="url(#paint6_radial_4099_1307)"/>
<path fill-rule="evenodd" clip-rule="evenodd" d="M10.6904 7.64355C5.05941 13.6058 7.2473 27.6441 14.5609 29.7185C14.3163 28.3321 13.7438 26.7295 12.7547 24.924C10.4861 20.7884 7.28224 11.8213 10.6904 7.64619V7.64355Z" fill="url(#paint7_radial_4099_1307)"/>
<path fill-rule="evenodd" clip-rule="evenodd" d="M1.31493 12.2692C0.339247 15.1555 -0.184879 18.3606 0.0597131 21.5658C1.33374 38.5273 16.2861 39.5763 14.5605 29.7157C10.9938 35.2272 -1.85133 28.3056 1.31224 12.2666L1.31493 12.2692Z" fill="url(#paint8_radial_4099_1307)"/>
<path fill-rule="evenodd" clip-rule="evenodd" d="M10.2269 7.40115C6.81877 11.5763 10.2726 20.8544 12.7535 24.9241C10.485 20.7885 7.28107 11.8214 10.6892 7.64628C12.138 5.87501 14.3044 7.30626 15.0381 11.4867C14.2721 6.29147 11.6757 5.62724 10.2269 7.40379V7.40115Z" fill="url(#paint9_radial_4099_1307)"/>
<path fill-rule="evenodd" clip-rule="evenodd" d="M26.2605 18.1421C26.919 16.123 27.3652 14.133 27.5587 12.4302C28.4027 5.08949 21.9116 2.87804 19.6404 11.5183C18.0895 17.4172 19.5759 30.6886 27.8624 31.4108C33.9665 31.9432 38.732 24.4997 40.7076 17.6149C41.7074 14.1172 42.0703 11.1703 41.9923 8.75064C41.5838 22.9841 30.3621 25.7754 26.2632 18.1421H26.2605Z" fill="url(#paint10_radial_4099_1307)"/>
<path fill-rule="evenodd" clip-rule="evenodd" d="M24.8817 9.31738C24.5242 13.0602 25.1102 16.0045 26.2579 18.1421C26.7121 16.753 27.0642 15.3798 27.3034 14.104C26.0482 14.2648 25.1854 12.8836 24.8817 9.31738Z" fill="url(#paint11_radial_4099_1307)"/>
<path fill-rule="evenodd" clip-rule="evenodd" d="M24.8809 9.31738C24.1498 14.2437 21.6662 18.7958 19.3789 20.2508C19.731 22.652 20.4298 25.0374 21.548 26.9879C23.5827 24.7053 25.2007 21.3868 26.2597 18.1447C25.112 16.0071 24.5234 13.0629 24.8836 9.32002L24.8809 9.31738Z" fill="url(#paint12_radial_4099_1307)"/>
<path fill-rule="evenodd" clip-rule="evenodd" d="M21.197 18.5033C20.6003 19.2651 19.9821 19.8687 19.3827 20.2509C18.9043 17.0062 19.0602 13.7431 19.6407 11.5184C19.8154 10.8542 20.0143 10.2506 20.2374 9.71289C19.9794 13.0287 20.3664 16.002 21.197 18.5033ZM23.9466 23.5219C23.2344 24.8109 22.4307 25.9943 21.5491 26.9854C22.9468 29.4104 24.9976 31.1605 27.8628 31.4109C33.4239 31.8933 37.8803 25.7518 40.1193 19.4443C35.5339 28.4878 28.3305 28.6697 23.9466 23.5219Z" fill="url(#paint13_radial_4099_1307)"/>
<path fill-rule="evenodd" clip-rule="evenodd" d="M19.3789 20.2478C19.731 22.6491 20.4298 25.0345 21.548 26.985C22.4296 25.9939 23.2333 24.8104 23.9455 23.5215C22.8059 22.1852 21.8625 20.493 21.1959 18.5029C20.5992 19.2647 19.981 19.8683 19.3816 20.2505L19.3789 20.2478Z" fill="url(#paint14_radial_4099_1307)"/>
<path fill-rule="evenodd" clip-rule="evenodd" d="M24.8811 9.31768C22.8357 27.3414 41.7687 27.7473 41.9891 8.75098C41.4677 26.9671 23.2361 26.4452 24.8811 9.31768Z" fill="url(#paint15_radial_4099_1307)"/>
</g>
<defs>
<radialGradient id="paint0_radial_4099_1307" cx="0" cy="0" r="1" gradientUnits="userSpaceOnUse" gradientTransform="translate(60.6079 -24.695) scale(90.0852 88.3421)">
<stop stop-color="white"/>
<stop offset="0.5" stop-color="#B2B2B2"/>
<stop offset="1" stop-color="#363636"/>
</radialGradient>
<radialGradient id="paint1_radial_4099_1307" cx="0" cy="0" r="1" gradientUnits="userSpaceOnUse" gradientTransform="translate(82.9088 8.10778) scale(90.3567 88.6083)">
<stop stop-color="white"/>
<stop offset="0.5" stop-color="#B2B2B2"/>
<stop offset="1" stop-color="#363636"/>
</radialGradient>
<radialGradient id="paint2_radial_4099_1307" cx="0" cy="0" r="1" gradientUnits="userSpaceOnUse" gradientTransform="translate(20.9597 79.52) scale(66.1743 64.8938)">
<stop stop-color="white"/>
<stop offset="0.5" stop-color="#B2B2B2"/>
<stop offset="1" stop-color="#363636"/>
</radialGradient>
<radialGradient id="paint3_radial_4099_1307" cx="0" cy="0" r="1" gradientUnits="userSpaceOnUse" gradientTransform="translate(41.747 -24.1568) scale(59.0543 57.9116)">
<stop stop-color="white"/>
<stop offset="0.5" stop-color="#B2B2B2"/>
<stop offset="1" stop-color="#363636"/>
</radialGradient>
<radialGradient id="paint4_radial_4099_1307" cx="0" cy="0" r="1" gradientUnits="userSpaceOnUse" gradientTransform="translate(-18.6861 7.56749) scale(71.5849 70.1997)">
<stop stop-color="white"/>
<stop offset="0.5" stop-color="#B2B2B2"/>
<stop offset="1" stop-color="#363636"/>
</radialGradient>
<radialGradient id="paint5_radial_4099_1307" cx="0" cy="0" r="1" gradientUnits="userSpaceOnUse" gradientTransform="translate(36.2391 -14.03) scale(45.849 44.9618)">
<stop stop-color="white"/>
<stop offset="0.5" stop-color="#B2B2B2"/>
<stop offset="1" stop-color="#363636"/>
</radialGradient>
<radialGradient id="paint6_radial_4099_1307" cx="0" cy="0" r="1" gradientUnits="userSpaceOnUse" gradientTransform="translate(-34.79 28.8962) scale(95.942 94.0855)">
<stop stop-color="white"/>
<stop offset="0.5" stop-color="#B2B2B2"/>
<stop offset="1" stop-color="#363636"/>
</radialGradient>
<radialGradient id="paint7_radial_4099_1307" cx="0" cy="0" r="1" gradientUnits="userSpaceOnUse" gradientTransform="translate(-43.5983 46.0395) scale(97.6569 95.7672)">
<stop stop-color="white"/>
<stop offset="0.5" stop-color="#B2B2B2"/>
<stop offset="1" stop-color="#363636"/>
</radialGradient>
<radialGradient id="paint8_radial_4099_1307" cx="0" cy="0" r="1" gradientUnits="userSpaceOnUse" gradientTransform="translate(-9.18641 36.5899) scale(64.0348 62.7957)">
<stop stop-color="white"/>
<stop offset="0.5" stop-color="#B2B2B2"/>
<stop offset="1" stop-color="#363636"/>
</radialGradient>
<radialGradient id="paint9_radial_4099_1307" cx="0" cy="0" r="1" gradientUnits="userSpaceOnUse" gradientTransform="translate(4.71688 9.863) scale(35.7965 35.1038)">
<stop stop-color="white"/>
<stop offset="0.5" stop-color="#B2B2B2"/>
<stop offset="1" stop-color="#363636"/>
</radialGradient>
<radialGradient id="paint10_radial_4099_1307" cx="0" cy="0" r="1" gradientUnits="userSpaceOnUse" gradientTransform="translate(9.53682 46.9858) scale(74.176 72.7407)">
<stop stop-color="white"/>
<stop offset="0.5" stop-color="#B2B2B2"/>
<stop offset="1" stop-color="#363636"/>
</radialGradient>
<radialGradient id="paint11_radial_4099_1307" cx="0" cy="0" r="1" gradientUnits="userSpaceOnUse" gradientTransform="translate(65.1481 14.5785) scale(62.9678 61.7493)">
<stop stop-color="white"/>
<stop offset="0.5" stop-color="#B2B2B2"/>
<stop offset="1" stop-color="#363636"/>
</radialGradient>
<radialGradient id="paint12_radial_4099_1307" cx="0" cy="0" r="1" gradientUnits="userSpaceOnUse" gradientTransform="translate(67.3513 16.4763) scale(82.1803 80.5901)">
<stop stop-color="white"/>
<stop offset="0.5" stop-color="#B2B2B2"/>
<stop offset="1" stop-color="#363636"/>
</radialGradient>
<radialGradient id="paint13_radial_4099_1307" cx="0" cy="0" r="1" gradientUnits="userSpaceOnUse" gradientTransform="translate(9.39741 44.2869) scale(90.0288 88.2867)">
<stop stop-color="white"/>
<stop offset="0.5" stop-color="#B2B2B2"/>
<stop offset="1" stop-color="#363636"/>
</radialGradient>
<radialGradient id="paint14_radial_4099_1307" cx="0" cy="0" r="1" gradientUnits="userSpaceOnUse" gradientTransform="translate(5.67099 45.6308) scale(67.9994 66.6836)">
<stop stop-color="white"/>
<stop offset="0.5" stop-color="#B2B2B2"/>
<stop offset="1" stop-color="#363636"/>
</radialGradient>
<radialGradient id="paint15_radial_4099_1307" cx="0" cy="0" r="1" gradientUnits="userSpaceOnUse" gradientTransform="translate(25.6417 23.6328) scale(41.5458 40.7418)">
<stop stop-color="white"/>
<stop offset="0.5" stop-color="#B2B2B2"/>
<stop offset="1" stop-color="#363636"/>
</radialGradient>
<clipPath id="clip0_4099_1307">
<rect width="42" height="36" fill="white"/>
</clipPath>
</defs>
</svg>
