<svg width="103" height="59" viewBox="0 0 103 59" fill="none" xmlns="http://www.w3.org/2000/svg">
<path opacity="0.25" d="M1.5 36.5218L5.8482 39.3242C8.19497 40.8367 11.3093 40.2979 13.0116 38.0849V38.0849C14.2333 36.4967 16.2379 35.721 18.2105 36.0733L22.0926 36.7665C26.3526 37.5273 29.8602 40.5479 31.2445 44.648L31.9983 46.8807C35.5789 57.4862 48.7298 61.1347 57.2628 53.8899L67.167 45.4808C68.6999 44.1793 69.8975 42.5285 70.659 40.6675V40.6675C72.3461 36.5443 76.0929 33.6249 80.5033 32.9969L80.7153 32.9667C84.9585 32.3626 88.4938 29.6325 89.7526 25.5356C91.5045 19.8339 93.5487 13.6001 97.5 15.0002" stroke="white" stroke-width="2" stroke-linecap="round"/>
<path d="M1.5 22.6535V22.6535C6.28201 20.2071 12.1211 21.4045 15.5544 25.5354L16.4341 26.5938C17.9915 28.4678 20.2219 29.656 22.646 29.9032V29.9032C26.3312 30.2789 29.4424 32.8048 30.5673 36.3342L30.9139 37.4215C33.9099 46.8212 46.7883 47.8766 51.2747 39.09L53.337 35.0507C55.5431 30.7302 59.9849 28.0108 64.8361 28.0108H67.5589C70.865 28.0108 74.0993 27.0461 76.8652 25.2349V25.2349C79.4446 23.5458 81.4601 21.1523 83.0855 18.5325C86.2604 13.4152 91.1541 7.70427 95.5 9.26056" stroke="#05E077" stroke-width="2" stroke-linecap="round"/>
<circle cx="97" cy="10.5" r="4.5" fill="#313131" stroke="#05E077" stroke-width="2" stroke-linecap="round"/>
</svg>
