<svg width="102" height="52" viewBox="0 0 102 52" fill="none" xmlns="http://www.w3.org/2000/svg">
<path opacity="0.25" d="M2.5 50.651L8.34915 40.4959C12.4586 33.3613 22.7398 33.3199 26.9065 40.4213V40.4213C30.9445 47.3032 40.8133 47.5292 45.1621 40.8393L49.7257 33.8189C54.7003 26.1665 65.08 24.2603 72.4489 29.646L80.6779 35.6603C86.98 40.2662 93.9326 39.4942 95.3723 31.8223C96.1653 27.5963 96.6573 22.1395 96.4541 15.4014" stroke="white" stroke-width="2" stroke-linecap="round"/>
<path d="M2 41.414L6.04612 35.0589C10.8222 27.5573 21.9794 28.2162 25.8394 36.2278V36.2278C29.8913 44.6377 41.7991 44.8293 46.1195 36.5541L50.0875 28.9539C54.382 20.7283 64.8499 18.0252 72.5901 23.143L80.7535 28.5406C86.4786 32.3261 92.8312 31.7192 94.3146 25.018C95.1732 21.1395 95.7231 16.0426 95.5109 9.6748" stroke="#05E077" stroke-width="2" stroke-linecap="round"/>
<circle cx="96.2264" cy="9.67468" r="4.27332" fill="#313131" stroke="#05E077" stroke-width="2" stroke-linecap="round"/>
</svg>
