<svg width="26" height="26" viewBox="0 0 31 31" fill="none" xmlns="http://www.w3.org/2000/svg">
<path d="M25.1875 23.2503C21.9829 23.2503 19.375 20.6425 19.375 17.4378C19.375 14.2332 21.9829 11.6253 25.1875 11.6253H28.4167V9.04199C28.4167 7.61728 27.258 6.45866 25.8333 6.45866H24.5417V3.87533C24.5417 2.45062 23.383 1.29199 21.9583 1.29199H3.875C2.96131 1.29418 2.07783 1.61937 1.38076 2.21007C0.683698 2.80077 0.217951 3.61892 0.065875 4.51987C0.0374583 4.62578 0 4.72912 0 4.84408V24.542C0 26.6784 1.73858 28.417 3.875 28.417H25.8333C27.258 28.417 28.4167 27.2584 28.4167 25.8337V23.2503H25.1875ZM2.58333 5.16699C2.58333 4.45528 3.162 3.87533 3.875 3.87533H21.9583V6.45866H3.875C3.162 6.45866 2.58333 5.8787 2.58333 5.16699Z" fill="#05E077"/>
<path d="M30.0312 13.5625H25.1875C23.0511 13.5625 21.3125 15.3011 21.3125 17.4375C21.3125 19.5739 23.0511 21.3125 25.1875 21.3125H30.0312C30.2882 21.3125 30.5346 21.2104 30.7163 21.0288C30.8979 20.8471 31 20.6007 31 20.3438V14.5312C31 14.2743 30.8979 14.0279 30.7163 13.8462C30.5346 13.6646 30.2882 13.5625 30.0312 13.5625ZM25.1875 18.7292C24.8449 18.7292 24.5164 18.5931 24.2742 18.3508C24.0319 18.1086 23.8958 17.7801 23.8958 17.4375C23.8958 17.0949 24.0319 16.7664 24.2742 16.5242C24.5164 16.2819 24.8449 16.1458 25.1875 16.1458C25.5301 16.1458 25.8586 16.2819 26.1008 16.5242C26.3431 16.7664 26.4792 17.0949 26.4792 17.4375C26.4792 17.7801 26.3431 18.1086 26.1008 18.3508C25.8586 18.5931 25.5301 18.7292 25.1875 18.7292Z" fill="#05E077"/>
</svg>
