<svg width="43" height="43" viewBox="0 0 43 43" fill="none" xmlns="http://www.w3.org/2000/svg">
<g clip-path="url(#clip0_3447_11295)">
<path d="M21.509 43.0179C33.388 43.0179 43.0179 33.388 43.0179 21.509C43.0179 9.62989 33.388 0 21.509 0C9.62989 0 0 9.62989 0 21.509C0 33.388 9.62989 43.0179 21.509 43.0179Z" fill="url(#paint0_linear_3447_11295)"/>
<path fill-rule="evenodd" clip-rule="evenodd" d="M9.72414 21.2764C15.9924 18.5542 20.1652 16.7453 22.2606 15.8678C28.2243 13.3784 29.478 12.9486 30.2839 12.9307C30.463 12.9307 30.857 12.9665 31.1256 13.1814C31.3405 13.3605 31.3943 13.5933 31.4301 13.7724C31.4659 13.9515 31.5017 14.3276 31.4659 14.6141C31.1435 18.0169 29.7466 26.273 29.0303 30.0698C28.7258 31.6816 28.1348 32.2189 27.5617 32.2726C26.3081 32.3801 25.3589 31.4488 24.159 30.6608C22.2606 29.425 21.2039 28.6549 19.3593 27.4371C17.2281 26.0402 18.6071 25.2701 19.8249 24.0165C20.1473 23.6941 25.6454 18.6795 25.7529 18.2318C25.7708 18.1781 25.7708 17.9632 25.6454 17.8557C25.5201 17.7482 25.341 17.7841 25.1977 17.8199C25.0007 17.8557 21.9919 19.8615 16.1356 23.8195C15.276 24.4105 14.5059 24.697 13.8074 24.6791C13.0373 24.6612 11.5688 24.2493 10.4584 23.8911C9.11522 23.4613 8.04067 23.2285 8.13022 22.4763C8.18395 22.0823 8.72122 21.6883 9.72414 21.2764Z" fill="white"/>
</g>
<defs>
<linearGradient id="paint0_linear_3447_11295" x1="21.491" y1="0" x2="21.491" y2="42.6776" gradientUnits="userSpaceOnUse">
<stop stop-color="#2AABEE"/>
<stop offset="1" stop-color="#229ED9"/>
</linearGradient>
<clipPath id="clip0_3447_11295">
<rect width="43" height="43" fill="white"/>
</clipPath>
</defs>
</svg>
