<svg width="102" height="52" viewBox="0 0 102 52" fill="none" xmlns="http://www.w3.org/2000/svg">
<path opacity="0.25" d="M2.5 50.6507L8.34915 40.4957C12.4586 33.361 22.7398 33.3197 26.9065 40.421V40.421C30.9445 47.303 40.8133 47.529 45.1621 40.8391L49.7257 33.8187C54.7003 26.1662 65.08 24.26 72.4489 29.6457L80.6779 35.66C86.98 40.266 93.9326 39.4939 95.3723 31.8221C96.1653 27.5961 96.6573 22.1393 96.4541 15.4011" stroke="white" stroke-width="2" stroke-linecap="round"/>
<path d="M2 41.4138L6.04612 35.0587C10.8222 27.5571 21.9794 28.2159 25.8394 36.2275V36.2275C29.8913 44.6375 41.7991 44.8291 46.1195 36.5539L50.0875 28.9537C54.382 20.7281 64.8499 18.0249 72.5901 23.1428L80.7535 28.5404C86.4786 32.3258 92.8312 31.719 94.3146 25.0177C95.1732 21.1392 95.7231 16.0424 95.5109 9.67456" stroke="#ED4343" stroke-width="2" stroke-linecap="round"/>
<circle cx="96.2264" cy="9.67444" r="4.27332" fill="#171717" stroke="#ED4343" stroke-width="2" stroke-linecap="round"/>
</svg>
